# xmcd
# 
# Track frame offsets:
#     150
#     18433
#     39664
#     58144
#     75224
#     91827
#     108907
#     128152
#     144377
#     163423
#     182601
#     201010
# 
# Disc length: 2914
# 
# Revision: 0
# Processed by: cddbd v1.5.2PL0 Copyright (c) Steve Scherf et al.
# Submitted via: fre:ac v1.0.31
# 
DISCID=970b600c
DTITLE=Fotonovela - Mistakes Are Good
DYEAR=2008
DGENRE=Synthpop
TTITLE0=Stand Up
TTITLE1=So Strange (feat. Marsheaux)
TTITLE2=Wrong Is Right
TTITLE3=Lower
TTITLE4=Fade Away
TTITLE5=Gorgeous
TTITLE6=In-between Us (feat. Elektra)
TTITLE7=Stupid Doll
TTITLE8=Story of My Love
TTITLE9=Hammer (feat. Elektra)
TTITLE10=Breath
TTITLE11=Unfair
EXTD=
EXTT0=
EXTT1=
EXTT2=
EXTT3=
EXTT4=
EXTT5=
EXTT6=
EXTT7=
EXTT8=
EXTT9=
EXTT10=
EXTT11=
PLAYORDER=
